<svg width="1452" height="367" viewBox="0 0 1452 367" fill="none" xmlns="http://www.w3.org/2000/svg">
<g clip-path="url(#clip0_121_40)">
<path d="M91.6193 83.1818H113.636V213.153C113.636 224.754 111.506 234.608 107.244 242.717C102.983 250.825 96.9756 256.98 89.2223 261.183C81.469 265.385 72.3248 267.486 61.7898 267.486C51.8466 267.486 42.9983 265.681 35.245 262.07C27.4917 258.401 21.3956 253.192 16.9567 246.445C12.5178 239.698 10.2983 231.679 10.2983 222.386H31.9602C31.9602 227.536 33.2327 232.034 35.7777 235.881C38.3819 239.669 41.933 242.628 46.4311 244.759C50.9292 246.889 56.0488 247.955 61.7898 247.955C68.1226 247.955 73.5085 246.623 77.9474 243.96C82.3864 241.296 85.7599 237.39 88.0682 232.241C90.4356 227.032 91.6193 220.67 91.6193 213.153V83.1818ZM210.316 267.841C198.005 267.841 187.204 264.911 177.912 259.052C168.679 253.192 161.458 244.995 156.25 234.46C151.101 223.925 148.526 211.615 148.526 197.528C148.526 183.324 151.101 170.924 156.25 160.33C161.458 149.736 168.679 141.509 177.912 135.65C187.204 129.79 198.005 126.861 210.316 126.861C222.627 126.861 233.398 129.79 242.631 135.65C251.924 141.509 259.144 149.736 264.293 160.33C269.502 170.924 272.106 183.324 272.106 197.528C272.106 211.615 269.502 223.925 264.293 234.46C259.144 244.995 251.924 253.192 242.631 259.052C233.398 264.911 222.627 267.841 210.316 267.841ZM210.316 249.02C219.667 249.02 227.362 246.623 233.398 241.829C239.435 237.035 243.904 230.732 246.804 222.919C249.704 215.107 251.154 206.643 251.154 197.528C251.154 188.414 249.704 179.921 246.804 172.049C243.904 164.177 239.435 157.815 233.398 152.962C227.362 148.108 219.667 145.682 210.316 145.682C200.965 145.682 193.271 148.108 187.234 152.962C181.197 157.815 176.728 164.177 173.828 172.049C170.928 179.921 169.478 188.414 169.478 197.528C169.478 206.643 170.928 215.107 173.828 222.919C176.728 230.732 181.197 237.035 187.234 241.829C193.271 246.623 200.965 249.02 210.316 249.02ZM344.216 268.196C335.575 268.196 327.733 266.568 320.69 263.313C313.647 259.999 308.054 255.234 303.911 249.02C299.768 242.746 297.696 235.17 297.696 226.293C297.696 218.48 299.235 212.147 302.313 207.294C305.39 202.382 309.504 198.535 314.653 195.753C319.802 192.971 325.484 190.9 331.698 189.538C337.972 188.118 344.275 186.993 350.608 186.165C358.894 185.099 365.612 184.3 370.761 183.768C375.969 183.176 379.757 182.199 382.124 180.838C384.551 179.477 385.764 177.109 385.764 173.736V173.026C385.764 164.266 383.367 157.46 378.573 152.607C373.838 147.753 366.647 145.327 357 145.327C346.998 145.327 339.156 147.517 333.474 151.896C327.792 156.276 323.797 160.952 321.489 165.923L301.602 158.821C305.154 150.535 309.888 144.084 315.807 139.467C321.785 134.792 328.295 131.536 335.338 129.702C342.441 127.808 349.424 126.861 356.29 126.861C360.67 126.861 365.7 127.393 371.382 128.459C377.123 129.465 382.657 131.566 387.984 134.762C393.37 137.958 397.838 142.782 401.389 149.233C404.941 155.684 406.716 164.325 406.716 175.156V265H385.764V246.534H384.699C383.279 249.493 380.911 252.66 377.597 256.033C374.282 259.407 369.873 262.277 364.369 264.645C358.865 267.012 352.147 268.196 344.216 268.196ZM347.412 249.375C355.698 249.375 362.682 247.747 368.364 244.492C374.105 241.237 378.425 237.035 381.325 231.886C384.285 226.737 385.764 221.321 385.764 215.639V196.463C384.877 197.528 382.923 198.505 379.905 199.393C376.946 200.221 373.513 200.961 369.607 201.612C365.76 202.204 362.001 202.737 358.332 203.21C354.722 203.625 351.792 203.98 349.543 204.276C344.098 204.986 339.008 206.14 334.273 207.738C329.597 209.277 325.809 211.615 322.909 214.751C320.068 217.829 318.648 222.031 318.648 227.358C318.648 234.638 321.341 240.142 326.727 243.871C332.172 247.54 339.067 249.375 347.412 249.375ZM330.367 112.301L314.031 111.591C314.031 102.536 316.606 95.1373 321.755 89.3963C326.963 83.5961 333.385 80.696 341.02 80.696C344.394 80.696 347.383 81.2879 349.987 82.4716C352.591 83.5961 355.077 84.8982 357.444 86.3778C359.811 87.8575 362.238 89.1892 364.724 90.3729C367.269 91.4974 370.139 92.0597 373.335 92.0597C376.709 92.0597 379.55 90.7576 381.858 88.1534C384.226 85.4901 385.409 82.294 385.409 78.5653L401.389 79.9858C401.389 89.2187 398.785 96.5578 393.577 102.003C388.428 107.448 382.036 110.17 374.401 110.17C370.317 110.17 366.943 109.608 364.28 108.484C361.617 107.3 359.249 105.968 357.178 104.489C355.106 103.009 352.916 101.707 350.608 100.582C348.3 99.3987 345.459 98.8068 342.085 98.8068C338.712 98.8068 335.901 100.138 333.651 102.802C331.462 105.406 330.367 108.572 330.367 112.301ZM500.355 267.841C488.045 267.841 477.243 264.911 467.951 259.052C458.718 253.192 451.497 244.995 446.289 234.46C441.14 223.925 438.565 211.615 438.565 197.528C438.565 183.324 441.14 170.924 446.289 160.33C451.497 149.736 458.718 141.509 467.951 135.65C477.243 129.79 488.045 126.861 500.355 126.861C512.666 126.861 523.438 129.79 532.67 135.65C541.963 141.509 549.183 149.736 554.332 160.33C559.541 170.924 562.145 183.324 562.145 197.528C562.145 211.615 559.541 223.925 554.332 234.46C549.183 244.995 541.963 253.192 532.67 259.052C523.438 264.911 512.666 267.841 500.355 267.841ZM500.355 249.02C509.706 249.02 517.401 246.623 523.438 241.829C529.474 237.035 533.943 230.732 536.843 222.919C539.743 215.107 541.193 206.643 541.193 197.528C541.193 188.414 539.743 179.921 536.843 172.049C533.943 164.177 529.474 157.815 523.438 152.962C517.401 148.108 509.706 145.682 500.355 145.682C491.004 145.682 483.31 148.108 477.273 152.962C471.236 157.815 466.767 164.177 463.867 172.049C460.967 179.921 459.517 188.414 459.517 197.528C459.517 206.643 460.967 215.107 463.867 222.919C466.767 230.732 471.236 237.035 477.273 241.829C483.31 246.623 491.004 249.02 500.355 249.02Z" fill="white"></path>
<path d="M689.25 86.75C696.333 86.75 702.167 87.625 706.75 89.375C711.417 91.125 715.125 93.1667 717.875 95.5C720.708 97.75 722.833 99.7917 724.25 101.625C725.75 103.375 726.792 104.25 727.375 104.25C727.875 104.25 728.833 103.5 730.25 102C731.667 100.417 733.208 98.5833 734.875 96.5C736.625 94.4167 738.167 92.625 739.5 91.125C740.917 89.5417 741.792 88.75 742.125 88.75C742.458 88.75 742.708 88.9167 742.875 89.25C743.042 89.5 743.125 89.9583 743.125 90.625L739.375 137.625C739.292 138.208 739.208 138.625 739.125 138.875C739.042 139.125 738.833 139.25 738.5 139.25C738.333 139.25 738.125 139.125 737.875 138.875C737.708 138.625 737.542 138.208 737.375 137.625L734 126.375C731.417 117.792 728.208 110.833 724.375 105.5C720.625 100.083 716.208 96.125 711.125 93.625C706.125 91.125 700.375 89.875 693.875 89.875C684.458 89.875 675.542 92.4583 667.125 97.625C658.708 102.708 651.042 109.792 644.125 118.875C637.208 127.958 631.375 138.375 626.625 150.125C621.958 161.875 618.542 174.333 616.375 187.5C613.542 206.25 612.958 221.292 614.625 232.625C616.375 243.958 619.917 252.167 625.25 257.25C630.667 262.25 637.458 264.75 645.625 264.75C651.625 264.75 657.458 263.5 663.125 261C668.875 258.5 673.875 255.042 678.125 250.625C682.375 246.208 685.333 241.125 687 235.375L698 197.75C698.583 196 698.625 194.625 698.125 193.625C697.708 192.542 696.667 191.917 695 191.75L680.625 190C679.958 189.833 679.5 189.708 679.25 189.625C679.083 189.458 679 189.208 679 188.875C679 188.625 679.125 188.417 679.375 188.25C679.625 188.083 679.958 188 680.375 188H737.125C737.458 188 737.708 188.083 737.875 188.25C738.042 188.333 738.125 188.5 738.125 188.75C738.042 189 737.917 189.208 737.75 189.375C737.583 189.458 737.167 189.583 736.5 189.75L726 192C724.833 192.25 723.833 192.833 723 193.75C722.167 194.583 721.542 195.75 721.125 197.25L701.625 265C701.375 265.917 701.125 266.542 700.875 266.875C700.625 267.208 700.292 267.375 699.875 267.375C699.625 267.375 698.917 266.792 697.75 265.625C696.583 264.542 695.208 263.208 693.625 261.625C692.042 259.958 690.417 258.333 688.75 256.75C687.167 255.083 685.792 253.708 684.625 252.625C683.542 251.458 682.833 250.875 682.5 250.875C682 250.875 680.792 251.708 678.875 253.375C676.958 255.042 674.333 257 671 259.25C667.667 261.417 663.708 263.333 659.125 265C654.542 266.667 649.208 267.5 643.125 267.5C630.542 267.5 619.667 264.458 610.5 258.375C601.417 252.292 594.875 243.375 590.875 231.625C586.958 219.792 586.375 205.292 589.125 188.125C591.208 174.625 595.25 161.792 601.25 149.625C607.333 137.458 614.875 126.667 623.875 117.25C632.958 107.75 643.042 100.292 654.125 94.875C665.292 89.4583 677 86.75 689.25 86.75ZM845.99 244.5C846.24 244.583 846.324 244.792 846.24 245.125C846.157 245.375 845.99 245.667 845.74 246C841.324 252.667 836.324 257.875 830.74 261.625C825.24 265.292 819.782 267.125 814.365 267.125C810.615 267.125 807.74 266.25 805.74 264.5C803.74 262.75 802.74 260.042 802.74 256.375C802.74 253.708 803.282 250.375 804.365 246.375C805.532 242.292 806.865 238.167 808.365 234C809.865 229.75 811.24 225.917 812.49 222.5C813.74 219 814.532 216.458 814.865 214.875L815.49 215.125C810.99 224.792 806.199 232.958 801.115 239.625C796.032 246.292 790.907 251.625 785.74 255.625C780.657 259.625 775.699 262.542 770.865 264.375C766.115 266.208 761.699 267.125 757.615 267.125C752.532 267.125 748.907 265.917 746.74 263.5C744.574 261 743.532 257.5 743.615 253C743.782 248.417 744.782 243.167 746.615 237.25L763.99 182.125C766.407 174.375 767.24 169.292 766.49 166.875C765.824 164.375 764.407 163.125 762.24 163.125C760.49 163.125 758.449 163.917 756.115 165.5C753.782 167 750.949 169.833 747.615 174C747.199 174.583 746.865 174.958 746.615 175.125C746.449 175.208 746.24 175.25 745.99 175.25C745.824 175.167 745.74 174.958 745.74 174.625C745.74 174.208 745.907 173.667 746.24 173C749.824 167.083 754.115 162.5 759.115 159.25C764.199 156 770.032 154.375 776.615 154.375C780.699 154.375 783.74 155.208 785.74 156.875C787.824 158.458 788.949 160.917 789.115 164.25C789.365 167.583 788.657 171.792 786.99 176.875L768.99 234.25C766.24 242.667 765.365 248.375 766.365 251.375C767.449 254.375 769.824 255.875 773.49 255.875C776.074 255.875 779.324 254.833 783.24 252.75C787.157 250.583 791.365 247.125 795.865 242.375C800.365 237.625 804.824 231.417 809.24 223.75C813.74 216.083 817.824 206.708 821.49 195.625C823.157 190.458 824.449 186.167 825.365 182.75C826.282 179.25 826.907 176.417 827.24 174.25C827.574 172.083 827.74 170.375 827.74 169.125C827.74 167.708 827.449 166.583 826.865 165.75C826.282 164.917 825.99 163.833 825.99 162.5C825.99 160.25 827.699 158.333 831.115 156.75C834.615 155.167 839.282 154.375 845.115 154.375C849.115 154.375 851.449 155.25 852.115 157C852.865 158.75 852.615 161.5 851.365 165.25L827.99 236.625C825.324 244.542 824.24 249.875 824.74 252.625C825.24 255.292 826.657 256.625 828.99 256.625C830.824 256.625 832.907 255.875 835.24 254.375C837.657 252.792 840.74 249.792 844.49 245.375C844.74 245.042 844.99 244.792 845.24 244.625C845.574 244.458 845.824 244.417 845.99 244.5ZM888.227 239.375C885.727 246.792 884.81 251.792 885.477 254.375C886.143 256.958 887.602 258.25 889.852 258.25C891.685 258.25 893.727 257.5 895.977 256C898.31 254.5 901.185 251.625 904.602 247.375C905.018 246.875 905.31 246.542 905.477 246.375C905.727 246.208 905.977 246.167 906.227 246.25C906.477 246.25 906.56 246.458 906.477 246.875C906.477 247.208 906.31 247.708 905.977 248.375C902.31 254.208 897.935 258.792 892.852 262.125C887.852 265.458 882.06 267.125 875.477 267.125C871.56 267.125 868.518 266.333 866.352 264.75C864.268 263.083 863.102 260.583 862.852 257.25C862.685 253.917 863.435 249.708 865.102 244.625L884.977 185C887.643 177.083 888.727 171.75 888.227 169C887.81 166.167 886.393 164.75 883.977 164.75C882.227 164.75 880.143 165.542 877.727 167.125C875.393 168.625 872.31 171.583 868.477 176C868.227 176.333 867.977 176.583 867.727 176.75C867.477 176.917 867.227 176.958 866.977 176.875C866.81 176.792 866.727 176.625 866.727 176.375C866.81 176.125 866.977 175.833 867.227 175.5C871.643 168.75 876.518 163.542 881.852 159.875C887.185 156.208 892.602 154.375 898.102 154.375C901.685 154.375 904.56 155.208 906.727 156.875C908.893 158.542 910.185 161.208 910.602 164.875C911.018 168.458 910.268 173.083 908.352 178.75L888.227 239.375ZM904.227 135.75C901.227 135.75 898.935 134.958 897.352 133.375C895.768 131.708 894.977 129.625 894.977 127.125C894.977 124.375 895.768 121.333 897.352 118C899.018 114.583 901.185 111.667 903.852 109.25C906.602 106.75 909.56 105.5 912.727 105.5C916.31 105.5 918.852 106.333 920.352 108C921.935 109.583 922.727 111.583 922.727 114C922.727 117.333 921.935 120.667 920.352 124C918.768 127.333 916.56 130.125 913.727 132.375C910.977 134.625 907.81 135.75 904.227 135.75ZM927.125 176.875C927.042 176.792 927 176.667 927 176.5C927 176.25 927.125 175.917 927.375 175.5C930.375 171 933.583 167.208 937 164.125C940.5 160.958 944.083 158.542 947.75 156.875C951.5 155.208 955.208 154.375 958.875 154.375C962.708 154.375 965.583 155.25 967.5 157C969.417 158.75 970.375 161.333 970.375 164.75C970.375 167.417 969.958 170.292 969.125 173.375C968.375 176.458 967.25 180.083 965.75 184.25C964.333 188.417 962.625 193.417 960.625 199.25C958.625 205 956.375 211.833 953.875 219.75L953.125 219.375C956.042 210.208 959.458 201.708 963.375 193.875C967.292 185.958 971.5 179.042 976 173.125C980.5 167.208 985.125 162.625 989.875 159.375C994.708 156.042 999.542 154.375 1004.38 154.375C1008.88 154.375 1012.13 155.875 1014.13 158.875C1016.21 161.875 1017.04 165.667 1016.63 170.25C1016.21 173.25 1015.38 175.875 1014.13 178.125C1012.88 180.292 1011.25 182 1009.25 183.25C1007.33 184.5 1005.21 185.125 1002.88 185.125C1000.63 185.125 998.75 184.542 997.25 183.375C995.75 182.125 995 180.417 995 178.25C995 176.583 995.167 175.042 995.5 173.625C995.917 172.208 996.125 170.833 996.125 169.5C996.125 167.833 995.875 166.542 995.375 165.625C994.875 164.708 993.958 164.25 992.625 164.25C989.208 164.25 985.167 166.542 980.5 171.125C975.917 175.708 971.167 182.667 966.25 192C961.333 201.25 956.75 212.917 952.5 227C951 232 949.75 236.292 948.75 239.875C947.75 243.458 947.25 246.583 947.25 249.25C947.25 250.833 947.583 252.125 948.25 253.125C949 254.042 949.708 254.833 950.375 255.5C951.125 256.083 951.5 256.75 951.5 257.5C951.5 258.667 950.5 260.042 948.5 261.625C946.5 263.125 943.833 264.417 940.5 265.5C937.167 266.583 933.542 267.125 929.625 267.125C927.042 267.125 925.167 266.583 924 265.5C922.917 264.417 922.417 262.833 922.5 260.75C922.667 258.667 923.208 256.083 924.125 253L945.25 184.875C947.75 176.875 948.792 171.542 948.375 168.875C947.958 166.125 946.542 164.75 944.125 164.75C942.458 164.75 940.417 165.542 938 167.125C935.667 168.625 932.583 171.583 928.75 176C928.417 176.417 928.125 176.708 927.875 176.875C927.625 176.958 927.375 176.958 927.125 176.875ZM1119.92 244.5C1120.17 244.583 1120.25 244.792 1120.17 245.125C1120.08 245.375 1119.92 245.667 1119.67 246C1115.25 252.667 1110.25 257.875 1104.67 261.625C1099.17 265.292 1093.71 267.125 1088.29 267.125C1084.54 267.125 1081.67 266.25 1079.67 264.5C1077.67 262.75 1076.67 260.042 1076.67 256.375C1076.67 253.708 1077.21 250.375 1078.29 246.375C1079.46 242.292 1080.79 238.167 1082.29 234C1083.79 229.75 1085.17 225.917 1086.42 222.5C1087.67 219 1088.46 216.458 1088.79 214.875L1089.42 215.125C1084.92 224.792 1080.12 232.958 1075.04 239.625C1069.96 246.292 1064.83 251.625 1059.67 255.625C1054.58 259.625 1049.62 262.542 1044.79 264.375C1040.04 266.208 1035.62 267.125 1031.54 267.125C1026.46 267.125 1022.83 265.917 1020.67 263.5C1018.5 261 1017.46 257.5 1017.54 253C1017.71 248.417 1018.71 243.167 1020.54 237.25L1037.92 182.125C1040.33 174.375 1041.17 169.292 1040.42 166.875C1039.75 164.375 1038.33 163.125 1036.17 163.125C1034.42 163.125 1032.37 163.917 1030.04 165.5C1027.71 167 1024.87 169.833 1021.54 174C1021.12 174.583 1020.79 174.958 1020.54 175.125C1020.37 175.208 1020.17 175.25 1019.92 175.25C1019.75 175.167 1019.67 174.958 1019.67 174.625C1019.67 174.208 1019.83 173.667 1020.17 173C1023.75 167.083 1028.04 162.5 1033.04 159.25C1038.12 156 1043.96 154.375 1050.54 154.375C1054.62 154.375 1057.67 155.208 1059.67 156.875C1061.75 158.458 1062.87 160.917 1063.04 164.25C1063.29 167.583 1062.58 171.792 1060.92 176.875L1042.92 234.25C1040.17 242.667 1039.29 248.375 1040.29 251.375C1041.37 254.375 1043.75 255.875 1047.42 255.875C1050 255.875 1053.25 254.833 1057.17 252.75C1061.08 250.583 1065.29 247.125 1069.79 242.375C1074.29 237.625 1078.75 231.417 1083.17 223.75C1087.67 216.083 1091.75 206.708 1095.42 195.625C1097.08 190.458 1098.37 186.167 1099.29 182.75C1100.21 179.25 1100.83 176.417 1101.17 174.25C1101.5 172.083 1101.67 170.375 1101.67 169.125C1101.67 167.708 1101.37 166.583 1100.79 165.75C1100.21 164.917 1099.92 163.833 1099.92 162.5C1099.92 160.25 1101.62 158.333 1105.04 156.75C1108.54 155.167 1113.21 154.375 1119.04 154.375C1123.04 154.375 1125.37 155.25 1126.04 157C1126.79 158.75 1126.54 161.5 1125.29 165.25L1101.92 236.625C1099.25 244.542 1098.17 249.875 1098.67 252.625C1099.17 255.292 1100.58 256.625 1102.92 256.625C1104.75 256.625 1106.83 255.875 1109.17 254.375C1111.58 252.792 1114.67 249.792 1118.42 245.375C1118.67 245.042 1118.92 244.792 1119.17 244.625C1119.5 244.458 1119.75 244.417 1119.92 244.5ZM1139.53 176.875C1139.36 176.792 1139.32 176.625 1139.4 176.375C1139.49 176.125 1139.61 175.833 1139.78 175.5C1144.28 168.75 1149.28 163.542 1154.78 159.875C1160.36 156.208 1165.86 154.375 1171.28 154.375C1175.03 154.375 1177.86 155.25 1179.78 157C1181.78 158.667 1182.78 161.375 1182.78 165.125C1182.78 167.792 1182.24 171.125 1181.15 175.125C1180.07 179.125 1178.78 183.25 1177.28 187.5C1175.78 191.667 1174.36 195.5 1173.03 199C1171.78 202.417 1171.03 204.958 1170.78 206.625L1170.03 206.375C1174.53 196.625 1179.32 188.458 1184.4 181.875C1189.57 175.208 1194.69 169.875 1199.78 165.875C1204.94 161.792 1209.94 158.875 1214.78 157.125C1219.69 155.292 1224.15 154.375 1228.15 154.375C1233.24 154.375 1236.86 155.625 1239.03 158.125C1241.28 160.542 1242.32 164 1242.15 168.5C1242.07 172.917 1241.07 178.167 1239.15 184.25L1221.9 239.375C1219.4 247.125 1218.53 252.208 1219.28 254.625C1220.03 257.042 1221.44 258.25 1223.53 258.25C1225.36 258.25 1227.4 257.5 1229.65 256C1231.99 254.5 1234.86 251.625 1238.28 247.375C1238.69 246.875 1238.99 246.542 1239.15 246.375C1239.4 246.208 1239.65 246.167 1239.9 246.25C1240.15 246.25 1240.24 246.458 1240.15 246.875C1240.15 247.208 1239.99 247.708 1239.65 248.375C1235.99 254.208 1231.65 258.792 1226.65 262.125C1221.65 265.458 1215.86 267.125 1209.28 267.125C1205.19 267.125 1202.11 266.333 1200.03 264.75C1197.94 263.083 1196.82 260.583 1196.65 257.25C1196.57 253.917 1197.28 249.708 1198.78 244.625L1216.9 187.25C1219.57 178.75 1220.4 173 1219.4 170C1218.4 167 1216.03 165.5 1212.28 165.5C1209.61 165.5 1206.32 166.583 1202.4 168.75C1198.49 170.917 1194.28 174.375 1189.78 179.125C1185.28 183.875 1180.78 190.083 1176.28 197.75C1171.86 205.417 1167.82 214.75 1164.15 225.75C1162.49 231 1161.19 235.375 1160.28 238.875C1159.36 242.292 1158.69 245.083 1158.28 247.25C1157.94 249.333 1157.78 251.042 1157.78 252.375C1157.78 253.792 1158.07 254.917 1158.65 255.75C1159.24 256.583 1159.53 257.625 1159.53 258.875C1159.53 261.125 1157.82 263.083 1154.4 264.75C1150.99 266.333 1146.32 267.125 1140.4 267.125C1136.49 267.125 1134.15 266.25 1133.4 264.5C1132.74 262.75 1132.99 260 1134.15 256.25L1157.65 184.875C1160.32 176.958 1161.4 171.625 1160.9 168.875C1160.4 166.125 1158.94 164.75 1156.53 164.75C1154.86 164.75 1152.82 165.542 1150.4 167.125C1148.07 168.625 1144.99 171.583 1141.15 176C1140.82 176.333 1140.53 176.583 1140.28 176.75C1140.11 176.917 1139.86 176.958 1139.53 176.875ZM1339.14 236.875C1336.89 245.708 1335.89 251.5 1336.14 254.25C1336.47 256.917 1337.85 258.25 1340.26 258.25C1342.1 258.25 1344.14 257.5 1346.39 256C1348.64 254.5 1351.43 251.625 1354.76 247.375C1355.18 246.875 1355.47 246.542 1355.64 246.375C1355.89 246.208 1356.14 246.167 1356.39 246.25C1356.64 246.25 1356.72 246.458 1356.64 246.875C1356.64 247.208 1356.47 247.708 1356.14 248.375C1352.56 254.208 1348.26 258.792 1343.26 262.125C1338.26 265.458 1332.72 267.125 1326.64 267.125C1322.56 267.125 1319.56 266.167 1317.64 264.25C1315.72 262.333 1314.76 259.5 1314.76 255.75C1314.76 254.167 1314.97 252.083 1315.39 249.5C1315.81 246.917 1316.43 243.75 1317.26 240C1318.18 236.25 1319.31 231.917 1320.64 227C1321.97 222 1323.56 216.375 1325.39 210.125L1326.39 210.625C1322.06 221.958 1317.31 231.875 1312.14 240.375C1307.06 248.792 1301.47 255.375 1295.39 260.125C1289.39 264.792 1282.81 267.125 1275.64 267.125C1267.81 267.125 1261.89 264.083 1257.89 258C1253.97 251.833 1252.93 242.208 1254.76 229.125C1255.68 221.292 1257.81 213.708 1261.14 206.375C1264.47 198.958 1268.72 192.125 1273.89 185.875C1279.06 179.542 1284.93 174.042 1291.51 169.375C1298.18 164.625 1305.26 160.917 1312.76 158.25C1320.26 155.583 1328.01 154.25 1336.01 154.25C1341.18 154.25 1345.72 154.625 1349.64 155.375C1353.64 156.125 1356.76 157 1359.01 158C1361.35 159 1362.51 159.833 1362.51 160.5C1362.51 161.25 1362.18 161.792 1361.51 162.125C1360.85 162.458 1360.18 162.833 1359.51 163.25C1358.85 163.583 1358.43 164.167 1358.26 165L1339.14 236.875ZM1276.64 232.5C1275.06 242.25 1275.35 249.25 1277.51 253.5C1279.68 257.75 1282.6 259.875 1286.26 259.875C1289.26 259.875 1292.35 258.708 1295.51 256.375C1298.76 254.042 1302.06 250.5 1305.39 245.75C1308.72 241 1312.14 235 1315.64 227.75C1319.14 220.5 1322.64 212 1326.14 202.25C1329.64 192.5 1333.1 181.458 1336.51 169.125C1337.6 165.125 1337.93 162.042 1337.51 159.875C1337.18 157.708 1335.6 156.625 1332.76 156.625C1327.51 156.625 1322.39 158.042 1317.39 160.875C1312.39 163.708 1307.68 167.583 1303.26 172.5C1298.85 177.417 1294.81 183.125 1291.14 189.625C1287.56 196.042 1284.51 202.917 1282.01 210.25C1279.51 217.5 1277.72 224.917 1276.64 232.5ZM1398.28 265C1403.78 265 1408.36 263.333 1412.03 260C1415.78 256.667 1417.65 252.458 1417.65 247.375C1417.74 244.792 1417.24 242.25 1416.15 239.75C1415.07 237.167 1413.24 234.292 1410.65 231.125C1408.07 227.958 1404.53 224.125 1400.03 219.625C1395.03 214.708 1390.99 210.5 1387.9 207C1384.9 203.417 1382.74 200.042 1381.4 196.875C1380.15 193.708 1379.61 190.208 1379.78 186.375C1380.11 180.625 1382.07 175.292 1385.65 170.375C1389.32 165.375 1394.32 161.375 1400.65 158.375C1406.99 155.375 1414.24 153.875 1422.4 153.875C1429.32 153.875 1435.11 154.75 1439.78 156.5C1444.44 158.25 1447.94 160.542 1450.28 163.375C1452.69 166.125 1453.94 169.042 1454.03 172.125C1454.11 174.708 1453.49 176.792 1452.15 178.375C1450.82 179.875 1449.11 180.625 1447.03 180.625C1444.53 180.625 1442.44 179.75 1440.78 178C1439.11 176.25 1437.61 173.083 1436.28 168.5C1434.69 164.167 1432.57 161 1429.9 159C1427.24 156.917 1424.19 155.875 1420.78 155.875C1414.69 155.875 1409.65 157.75 1405.65 161.5C1401.74 165.25 1399.78 170.125 1399.78 176.125C1399.69 179.125 1400.15 182.042 1401.15 184.875C1402.15 187.708 1404.11 190.917 1407.03 194.5C1410.03 198 1414.4 202.5 1420.15 208C1424.9 212.333 1428.61 216.167 1431.28 219.5C1434.03 222.75 1435.9 225.875 1436.9 228.875C1437.99 231.875 1438.36 235.167 1438.03 238.75C1437.61 244.333 1435.57 249.25 1431.9 253.5C1428.24 257.75 1423.4 261.083 1417.4 263.5C1411.4 265.917 1404.49 267.125 1396.65 267.125C1389.65 267.125 1383.61 266.042 1378.53 263.875C1373.53 261.708 1369.69 258.917 1367.03 255.5C1364.36 252 1363.03 248.375 1363.03 244.625C1363.03 242.292 1363.57 240.375 1364.65 238.875C1365.74 237.292 1367.36 236.5 1369.53 236.5C1372.03 236.5 1374.11 237.458 1375.78 239.375C1377.44 241.292 1378.94 244.542 1380.28 249.125C1382.78 254.958 1385.49 259.083 1388.4 261.5C1391.32 263.833 1394.61 265 1398.28 265Z" fill="#FF4400"></path>
</g>
<defs>
<clipPath id="clip0_121_40">
<rect width="1452" height="367" fill="white"></rect>
</clipPath>
</defs>
</svg>