<svg width="1620" height="777" viewBox="0 0 1620 777" fill="none" xmlns="http://www.w3.org/2000/svg">
<path d="M753.957 74.9443L765.473 55L789.168 96.043L802.473 73L973.946 370H631L641.393 352H594L604.97 333H560L731.473 36L753.957 74.9443ZM794.364 105.043L936.945 352H651.784L646.588 361H958.357L802.473 91L794.364 105.043ZM575.588 324H610.166L748.761 83.9443L731.473 54L575.588 324ZM677 310H853L765 157L677 310Z" fill="#FF4400"/>
<path d="M193.619 476.182H215.636V606.153C215.636 617.754 213.506 627.608 209.244 635.717C204.983 643.825 198.976 649.98 191.222 654.183C183.469 658.385 174.325 660.486 163.79 660.486C153.847 660.486 144.998 658.681 137.245 655.07C129.492 651.401 123.396 646.192 118.957 639.445C114.518 632.698 112.298 624.679 112.298 615.386H133.96C133.96 620.536 135.233 625.034 137.778 628.881C140.382 632.669 143.933 635.628 148.431 637.759C152.929 639.889 158.049 640.955 163.79 640.955C170.123 640.955 175.509 639.623 179.947 636.96C184.386 634.296 187.76 630.39 190.068 625.241C192.436 620.032 193.619 613.67 193.619 606.153V476.182ZM312.316 660.841C300.005 660.841 289.204 657.911 279.912 652.052C270.679 646.192 263.458 637.995 258.25 627.46C253.101 616.925 250.526 604.615 250.526 590.528C250.526 576.324 253.101 563.924 258.25 553.33C263.458 542.736 270.679 534.509 279.912 528.65C289.204 522.79 300.005 519.861 312.316 519.861C324.627 519.861 335.398 522.79 344.631 528.65C353.924 534.509 361.144 542.736 366.293 553.33C371.502 563.924 374.106 576.324 374.106 590.528C374.106 604.615 371.502 616.925 366.293 627.46C361.144 637.995 353.924 646.192 344.631 652.052C335.398 657.911 324.627 660.841 312.316 660.841ZM312.316 642.02C321.667 642.02 329.362 639.623 335.398 634.829C341.435 630.035 345.904 623.732 348.804 615.919C351.704 608.107 353.154 599.643 353.154 590.528C353.154 581.414 351.704 572.921 348.804 565.049C345.904 557.177 341.435 550.815 335.398 545.962C329.362 541.108 321.667 538.682 312.316 538.682C302.965 538.682 295.271 541.108 289.234 545.962C283.197 550.815 278.728 557.177 275.828 565.049C272.928 572.921 271.478 581.414 271.478 590.528C271.478 599.643 272.928 608.107 275.828 615.919C278.728 623.732 283.197 630.035 289.234 634.829C295.271 639.623 302.965 642.02 312.316 642.02ZM446.216 661.196C437.575 661.196 429.733 659.568 422.69 656.313C415.647 652.999 410.054 648.234 405.911 642.02C401.768 635.746 399.696 628.17 399.696 619.293C399.696 611.48 401.235 605.147 404.313 600.294C407.39 595.382 411.504 591.535 416.653 588.753C421.802 585.971 427.484 583.9 433.698 582.538C439.972 581.118 446.275 579.993 452.608 579.165C460.894 578.099 467.612 577.3 472.761 576.768C477.969 576.176 481.757 575.199 484.124 573.838C486.551 572.477 487.764 570.109 487.764 566.736V566.026C487.764 557.266 485.367 550.46 480.573 545.607C475.838 540.753 468.647 538.327 459 538.327C448.998 538.327 441.156 540.517 435.474 544.896C429.792 549.276 425.797 553.952 423.489 558.923L403.602 551.821C407.154 543.535 411.888 537.084 417.807 532.467C423.785 527.792 430.295 524.536 437.338 522.702C444.441 520.808 451.424 519.861 458.29 519.861C462.67 519.861 467.7 520.393 473.382 521.459C479.123 522.465 484.657 524.566 489.984 527.762C495.37 530.958 499.838 535.782 503.389 542.233C506.941 548.684 508.716 557.325 508.716 568.156V658H487.764V639.534H486.699C485.279 642.493 482.911 645.66 479.597 649.033C476.282 652.407 471.873 655.277 466.369 657.645C460.865 660.012 454.147 661.196 446.216 661.196ZM449.412 642.375C457.698 642.375 464.682 640.747 470.364 637.492C476.105 634.237 480.425 630.035 483.325 624.886C486.285 619.737 487.764 614.321 487.764 608.639V589.463C486.877 590.528 484.923 591.505 481.905 592.393C478.946 593.221 475.513 593.961 471.607 594.612C467.76 595.204 464.001 595.737 460.332 596.21C456.722 596.625 453.792 596.98 451.543 597.276C446.098 597.986 441.008 599.14 436.273 600.738C431.597 602.277 427.809 604.615 424.909 607.751C422.068 610.829 420.648 615.031 420.648 620.358C420.648 627.638 423.341 633.142 428.727 636.871C434.172 640.54 441.067 642.375 449.412 642.375ZM432.367 505.301L416.031 504.591C416.031 495.536 418.606 488.137 423.755 482.396C428.963 476.596 435.385 473.696 443.02 473.696C446.394 473.696 449.383 474.288 451.987 475.472C454.591 476.596 457.077 477.898 459.444 479.378C461.811 480.857 464.238 482.189 466.724 483.373C469.269 484.497 472.139 485.06 475.335 485.06C478.709 485.06 481.55 483.758 483.858 481.153C486.226 478.49 487.409 475.294 487.409 471.565L503.389 472.986C503.389 482.219 500.785 489.558 495.577 495.003C490.428 500.448 484.036 503.17 476.401 503.17C472.317 503.17 468.943 502.608 466.28 501.484C463.617 500.3 461.249 498.968 459.178 497.489C457.106 496.009 454.916 494.707 452.608 493.582C450.3 492.399 447.459 491.807 444.085 491.807C440.712 491.807 437.901 493.138 435.651 495.802C433.462 498.406 432.367 501.572 432.367 505.301ZM602.355 660.841C590.045 660.841 579.243 657.911 569.951 652.052C560.718 646.192 553.497 637.995 548.289 627.46C543.14 616.925 540.565 604.615 540.565 590.528C540.565 576.324 543.14 563.924 548.289 553.33C553.497 542.736 560.718 534.509 569.951 528.65C579.243 522.79 590.045 519.861 602.355 519.861C614.666 519.861 625.438 522.79 634.67 528.65C643.963 534.509 651.183 542.736 656.332 553.33C661.541 563.924 664.145 576.324 664.145 590.528C664.145 604.615 661.541 616.925 656.332 627.46C651.183 637.995 643.963 646.192 634.67 652.052C625.438 657.911 614.666 660.841 602.355 660.841ZM602.355 642.02C611.706 642.02 619.401 639.623 625.438 634.829C631.474 630.035 635.943 623.732 638.843 615.919C641.743 608.107 643.193 599.643 643.193 590.528C643.193 581.414 641.743 572.921 638.843 565.049C635.943 557.177 631.474 550.815 625.438 545.962C619.401 541.108 611.706 538.682 602.355 538.682C593.004 538.682 585.31 541.108 579.273 545.962C573.236 550.815 568.767 557.177 565.867 565.049C562.967 572.921 561.517 581.414 561.517 590.528C561.517 599.643 562.967 608.107 565.867 615.919C568.767 623.732 573.236 630.035 579.273 634.829C585.31 639.623 593.004 642.02 602.355 642.02Z" fill="white"/>
<path d="M783.25 481.75C790.333 481.75 796.167 482.625 800.75 484.375C805.417 486.125 809.125 488.167 811.875 490.5C814.708 492.75 816.833 494.792 818.25 496.625C819.75 498.375 820.792 499.25 821.375 499.25C821.875 499.25 822.833 498.5 824.25 497C825.667 495.417 827.208 493.583 828.875 491.5C830.625 489.417 832.167 487.625 833.5 486.125C834.917 484.542 835.792 483.75 836.125 483.75C836.458 483.75 836.708 483.917 836.875 484.25C837.042 484.5 837.125 484.958 837.125 485.625L833.375 532.625C833.292 533.208 833.208 533.625 833.125 533.875C833.042 534.125 832.833 534.25 832.5 534.25C832.333 534.25 832.125 534.125 831.875 533.875C831.708 533.625 831.542 533.208 831.375 532.625L828 521.375C825.417 512.792 822.208 505.833 818.375 500.5C814.625 495.083 810.208 491.125 805.125 488.625C800.125 486.125 794.375 484.875 787.875 484.875C778.458 484.875 769.542 487.458 761.125 492.625C752.708 497.708 745.042 504.792 738.125 513.875C731.208 522.958 725.375 533.375 720.625 545.125C715.958 556.875 712.542 569.333 710.375 582.5C707.542 601.25 706.958 616.292 708.625 627.625C710.375 638.958 713.917 647.167 719.25 652.25C724.667 657.25 731.458 659.75 739.625 659.75C745.625 659.75 751.458 658.5 757.125 656C762.875 653.5 767.875 650.042 772.125 645.625C776.375 641.208 779.333 636.125 781 630.375L792 592.75C792.583 591 792.625 589.625 792.125 588.625C791.708 587.542 790.667 586.917 789 586.75L774.625 585C773.958 584.833 773.5 584.708 773.25 584.625C773.083 584.458 773 584.208 773 583.875C773 583.625 773.125 583.417 773.375 583.25C773.625 583.083 773.958 583 774.375 583H831.125C831.458 583 831.708 583.083 831.875 583.25C832.042 583.333 832.125 583.5 832.125 583.75C832.042 584 831.917 584.208 831.75 584.375C831.583 584.458 831.167 584.583 830.5 584.75L820 587C818.833 587.25 817.833 587.833 817 588.75C816.167 589.583 815.542 590.75 815.125 592.25L795.625 660C795.375 660.917 795.125 661.542 794.875 661.875C794.625 662.208 794.292 662.375 793.875 662.375C793.625 662.375 792.917 661.792 791.75 660.625C790.583 659.542 789.208 658.208 787.625 656.625C786.042 654.958 784.417 653.333 782.75 651.75C781.167 650.083 779.792 648.708 778.625 647.625C777.542 646.458 776.833 645.875 776.5 645.875C776 645.875 774.792 646.708 772.875 648.375C770.958 650.042 768.333 652 765 654.25C761.667 656.417 757.708 658.333 753.125 660C748.542 661.667 743.208 662.5 737.125 662.5C724.542 662.5 713.667 659.458 704.5 653.375C695.417 647.292 688.875 638.375 684.875 626.625C680.958 614.792 680.375 600.292 683.125 583.125C685.208 569.625 689.25 556.792 695.25 544.625C701.333 532.458 708.875 521.667 717.875 512.25C726.958 502.75 737.042 495.292 748.125 489.875C759.292 484.458 771 481.75 783.25 481.75ZM939.99 639.5C940.24 639.583 940.324 639.792 940.24 640.125C940.157 640.375 939.99 640.667 939.74 641C935.324 647.667 930.324 652.875 924.74 656.625C919.24 660.292 913.782 662.125 908.365 662.125C904.615 662.125 901.74 661.25 899.74 659.5C897.74 657.75 896.74 655.042 896.74 651.375C896.74 648.708 897.282 645.375 898.365 641.375C899.532 637.292 900.865 633.167 902.365 629C903.865 624.75 905.24 620.917 906.49 617.5C907.74 614 908.532 611.458 908.865 609.875L909.49 610.125C904.99 619.792 900.199 627.958 895.115 634.625C890.032 641.292 884.907 646.625 879.74 650.625C874.657 654.625 869.699 657.542 864.865 659.375C860.115 661.208 855.699 662.125 851.615 662.125C846.532 662.125 842.907 660.917 840.74 658.5C838.574 656 837.532 652.5 837.615 648C837.782 643.417 838.782 638.167 840.615 632.25L857.99 577.125C860.407 569.375 861.24 564.292 860.49 561.875C859.824 559.375 858.407 558.125 856.24 558.125C854.49 558.125 852.449 558.917 850.115 560.5C847.782 562 844.949 564.833 841.615 569C841.199 569.583 840.865 569.958 840.615 570.125C840.449 570.208 840.24 570.25 839.99 570.25C839.824 570.167 839.74 569.958 839.74 569.625C839.74 569.208 839.907 568.667 840.24 568C843.824 562.083 848.115 557.5 853.115 554.25C858.199 551 864.032 549.375 870.615 549.375C874.699 549.375 877.74 550.208 879.74 551.875C881.824 553.458 882.949 555.917 883.115 559.25C883.365 562.583 882.657 566.792 880.99 571.875L862.99 629.25C860.24 637.667 859.365 643.375 860.365 646.375C861.449 649.375 863.824 650.875 867.49 650.875C870.074 650.875 873.324 649.833 877.24 647.75C881.157 645.583 885.365 642.125 889.865 637.375C894.365 632.625 898.824 626.417 903.24 618.75C907.74 611.083 911.824 601.708 915.49 590.625C917.157 585.458 918.449 581.167 919.365 577.75C920.282 574.25 920.907 571.417 921.24 569.25C921.574 567.083 921.74 565.375 921.74 564.125C921.74 562.708 921.449 561.583 920.865 560.75C920.282 559.917 919.99 558.833 919.99 557.5C919.99 555.25 921.699 553.333 925.115 551.75C928.615 550.167 933.282 549.375 939.115 549.375C943.115 549.375 945.449 550.25 946.115 552C946.865 553.75 946.615 556.5 945.365 560.25L921.99 631.625C919.324 639.542 918.24 644.875 918.74 647.625C919.24 650.292 920.657 651.625 922.99 651.625C924.824 651.625 926.907 650.875 929.24 649.375C931.657 647.792 934.74 644.792 938.49 640.375C938.74 640.042 938.99 639.792 939.24 639.625C939.574 639.458 939.824 639.417 939.99 639.5ZM982.227 634.375C979.727 641.792 978.81 646.792 979.477 649.375C980.143 651.958 981.602 653.25 983.852 653.25C985.685 653.25 987.727 652.5 989.977 651C992.31 649.5 995.185 646.625 998.602 642.375C999.018 641.875 999.31 641.542 999.477 641.375C999.727 641.208 999.977 641.167 1000.23 641.25C1000.48 641.25 1000.56 641.458 1000.48 641.875C1000.48 642.208 1000.31 642.708 999.977 643.375C996.31 649.208 991.935 653.792 986.852 657.125C981.852 660.458 976.06 662.125 969.477 662.125C965.56 662.125 962.518 661.333 960.352 659.75C958.268 658.083 957.102 655.583 956.852 652.25C956.685 648.917 957.435 644.708 959.102 639.625L978.977 580C981.643 572.083 982.727 566.75 982.227 564C981.81 561.167 980.393 559.75 977.977 559.75C976.227 559.75 974.143 560.542 971.727 562.125C969.393 563.625 966.31 566.583 962.477 571C962.227 571.333 961.977 571.583 961.727 571.75C961.477 571.917 961.227 571.958 960.977 571.875C960.81 571.792 960.727 571.625 960.727 571.375C960.81 571.125 960.977 570.833 961.227 570.5C965.643 563.75 970.518 558.542 975.852 554.875C981.185 551.208 986.602 549.375 992.102 549.375C995.685 549.375 998.56 550.208 1000.73 551.875C1002.89 553.542 1004.18 556.208 1004.6 559.875C1005.02 563.458 1004.27 568.083 1002.35 573.75L982.227 634.375ZM998.227 530.75C995.227 530.75 992.935 529.958 991.352 528.375C989.768 526.708 988.977 524.625 988.977 522.125C988.977 519.375 989.768 516.333 991.352 513C993.018 509.583 995.185 506.667 997.852 504.25C1000.6 501.75 1003.56 500.5 1006.73 500.5C1010.31 500.5 1012.85 501.333 1014.35 503C1015.93 504.583 1016.73 506.583 1016.73 509C1016.73 512.333 1015.93 515.667 1014.35 519C1012.77 522.333 1010.56 525.125 1007.73 527.375C1004.98 529.625 1001.81 530.75 998.227 530.75ZM1021.13 571.875C1021.04 571.792 1021 571.667 1021 571.5C1021 571.25 1021.13 570.917 1021.38 570.5C1024.38 566 1027.58 562.208 1031 559.125C1034.5 555.958 1038.08 553.542 1041.75 551.875C1045.5 550.208 1049.21 549.375 1052.88 549.375C1056.71 549.375 1059.58 550.25 1061.5 552C1063.42 553.75 1064.38 556.333 1064.38 559.75C1064.38 562.417 1063.96 565.292 1063.13 568.375C1062.38 571.458 1061.25 575.083 1059.75 579.25C1058.33 583.417 1056.63 588.417 1054.63 594.25C1052.63 600 1050.38 606.833 1047.88 614.75L1047.13 614.375C1050.04 605.208 1053.46 596.708 1057.38 588.875C1061.29 580.958 1065.5 574.042 1070 568.125C1074.5 562.208 1079.13 557.625 1083.88 554.375C1088.71 551.042 1093.54 549.375 1098.38 549.375C1102.88 549.375 1106.13 550.875 1108.13 553.875C1110.21 556.875 1111.04 560.667 1110.63 565.25C1110.21 568.25 1109.38 570.875 1108.13 573.125C1106.88 575.292 1105.25 577 1103.25 578.25C1101.33 579.5 1099.21 580.125 1096.88 580.125C1094.63 580.125 1092.75 579.542 1091.25 578.375C1089.75 577.125 1089 575.417 1089 573.25C1089 571.583 1089.17 570.042 1089.5 568.625C1089.92 567.208 1090.13 565.833 1090.13 564.5C1090.13 562.833 1089.88 561.542 1089.38 560.625C1088.88 559.708 1087.96 559.25 1086.63 559.25C1083.21 559.25 1079.17 561.542 1074.5 566.125C1069.92 570.708 1065.17 577.667 1060.25 587C1055.33 596.25 1050.75 607.917 1046.5 622C1045 627 1043.75 631.292 1042.75 634.875C1041.75 638.458 1041.25 641.583 1041.25 644.25C1041.25 645.833 1041.58 647.125 1042.25 648.125C1043 649.042 1043.71 649.833 1044.38 650.5C1045.13 651.083 1045.5 651.75 1045.5 652.5C1045.5 653.667 1044.5 655.042 1042.5 656.625C1040.5 658.125 1037.83 659.417 1034.5 660.5C1031.17 661.583 1027.54 662.125 1023.63 662.125C1021.04 662.125 1019.17 661.583 1018 660.5C1016.92 659.417 1016.42 657.833 1016.5 655.75C1016.67 653.667 1017.21 651.083 1018.13 648L1039.25 579.875C1041.75 571.875 1042.79 566.542 1042.38 563.875C1041.96 561.125 1040.54 559.75 1038.13 559.75C1036.46 559.75 1034.42 560.542 1032 562.125C1029.67 563.625 1026.58 566.583 1022.75 571C1022.42 571.417 1022.13 571.708 1021.88 571.875C1021.63 571.958 1021.38 571.958 1021.13 571.875ZM1213.92 639.5C1214.17 639.583 1214.25 639.792 1214.17 640.125C1214.08 640.375 1213.92 640.667 1213.67 641C1209.25 647.667 1204.25 652.875 1198.67 656.625C1193.17 660.292 1187.71 662.125 1182.29 662.125C1178.54 662.125 1175.67 661.25 1173.67 659.5C1171.67 657.75 1170.67 655.042 1170.67 651.375C1170.67 648.708 1171.21 645.375 1172.29 641.375C1173.46 637.292 1174.79 633.167 1176.29 629C1177.79 624.75 1179.17 620.917 1180.42 617.5C1181.67 614 1182.46 611.458 1182.79 609.875L1183.42 610.125C1178.92 619.792 1174.12 627.958 1169.04 634.625C1163.96 641.292 1158.83 646.625 1153.67 650.625C1148.58 654.625 1143.62 657.542 1138.79 659.375C1134.04 661.208 1129.62 662.125 1125.54 662.125C1120.46 662.125 1116.83 660.917 1114.67 658.5C1112.5 656 1111.46 652.5 1111.54 648C1111.71 643.417 1112.71 638.167 1114.54 632.25L1131.92 577.125C1134.33 569.375 1135.17 564.292 1134.42 561.875C1133.75 559.375 1132.33 558.125 1130.17 558.125C1128.42 558.125 1126.37 558.917 1124.04 560.5C1121.71 562 1118.87 564.833 1115.54 569C1115.12 569.583 1114.79 569.958 1114.54 570.125C1114.37 570.208 1114.17 570.25 1113.92 570.25C1113.75 570.167 1113.67 569.958 1113.67 569.625C1113.67 569.208 1113.83 568.667 1114.17 568C1117.75 562.083 1122.04 557.5 1127.04 554.25C1132.12 551 1137.96 549.375 1144.54 549.375C1148.62 549.375 1151.67 550.208 1153.67 551.875C1155.75 553.458 1156.87 555.917 1157.04 559.25C1157.29 562.583 1156.58 566.792 1154.92 571.875L1136.92 629.25C1134.17 637.667 1133.29 643.375 1134.29 646.375C1135.37 649.375 1137.75 650.875 1141.42 650.875C1144 650.875 1147.25 649.833 1151.17 647.75C1155.08 645.583 1159.29 642.125 1163.79 637.375C1168.29 632.625 1172.75 626.417 1177.17 618.75C1181.67 611.083 1185.75 601.708 1189.42 590.625C1191.08 585.458 1192.37 581.167 1193.29 577.75C1194.21 574.25 1194.83 571.417 1195.17 569.25C1195.5 567.083 1195.67 565.375 1195.67 564.125C1195.67 562.708 1195.37 561.583 1194.79 560.75C1194.21 559.917 1193.92 558.833 1193.92 557.5C1193.92 555.25 1195.62 553.333 1199.04 551.75C1202.54 550.167 1207.21 549.375 1213.04 549.375C1217.04 549.375 1219.37 550.25 1220.04 552C1220.79 553.75 1220.54 556.5 1219.29 560.25L1195.92 631.625C1193.25 639.542 1192.17 644.875 1192.67 647.625C1193.17 650.292 1194.58 651.625 1196.92 651.625C1198.75 651.625 1200.83 650.875 1203.17 649.375C1205.58 647.792 1208.67 644.792 1212.42 640.375C1212.67 640.042 1212.92 639.792 1213.17 639.625C1213.5 639.458 1213.75 639.417 1213.92 639.5ZM1233.53 571.875C1233.36 571.792 1233.32 571.625 1233.4 571.375C1233.49 571.125 1233.61 570.833 1233.78 570.5C1238.28 563.75 1243.28 558.542 1248.78 554.875C1254.36 551.208 1259.86 549.375 1265.28 549.375C1269.03 549.375 1271.86 550.25 1273.78 552C1275.78 553.667 1276.78 556.375 1276.78 560.125C1276.78 562.792 1276.24 566.125 1275.15 570.125C1274.07 574.125 1272.78 578.25 1271.28 582.5C1269.78 586.667 1268.36 590.5 1267.03 594C1265.78 597.417 1265.03 599.958 1264.78 601.625L1264.03 601.375C1268.53 591.625 1273.32 583.458 1278.4 576.875C1283.57 570.208 1288.69 564.875 1293.78 560.875C1298.94 556.792 1303.94 553.875 1308.78 552.125C1313.69 550.292 1318.15 549.375 1322.15 549.375C1327.24 549.375 1330.86 550.625 1333.03 553.125C1335.28 555.542 1336.32 559 1336.15 563.5C1336.07 567.917 1335.07 573.167 1333.15 579.25L1315.9 634.375C1313.4 642.125 1312.53 647.208 1313.28 649.625C1314.03 652.042 1315.44 653.25 1317.53 653.25C1319.36 653.25 1321.4 652.5 1323.65 651C1325.99 649.5 1328.86 646.625 1332.28 642.375C1332.69 641.875 1332.99 641.542 1333.15 641.375C1333.4 641.208 1333.65 641.167 1333.9 641.25C1334.15 641.25 1334.24 641.458 1334.15 641.875C1334.15 642.208 1333.99 642.708 1333.65 643.375C1329.99 649.208 1325.65 653.792 1320.65 657.125C1315.65 660.458 1309.86 662.125 1303.28 662.125C1299.19 662.125 1296.11 661.333 1294.03 659.75C1291.94 658.083 1290.82 655.583 1290.65 652.25C1290.57 648.917 1291.28 644.708 1292.78 639.625L1310.9 582.25C1313.57 573.75 1314.4 568 1313.4 565C1312.4 562 1310.03 560.5 1306.28 560.5C1303.61 560.5 1300.32 561.583 1296.4 563.75C1292.49 565.917 1288.28 569.375 1283.78 574.125C1279.28 578.875 1274.78 585.083 1270.28 592.75C1265.86 600.417 1261.82 609.75 1258.15 620.75C1256.49 626 1255.19 630.375 1254.28 633.875C1253.36 637.292 1252.69 640.083 1252.28 642.25C1251.94 644.333 1251.78 646.042 1251.78 647.375C1251.78 648.792 1252.07 649.917 1252.65 650.75C1253.24 651.583 1253.53 652.625 1253.53 653.875C1253.53 656.125 1251.82 658.083 1248.4 659.75C1244.99 661.333 1240.32 662.125 1234.4 662.125C1230.49 662.125 1228.15 661.25 1227.4 659.5C1226.74 657.75 1226.99 655 1228.15 651.25L1251.65 579.875C1254.32 571.958 1255.4 566.625 1254.9 563.875C1254.4 561.125 1252.94 559.75 1250.53 559.75C1248.86 559.75 1246.82 560.542 1244.4 562.125C1242.07 563.625 1238.99 566.583 1235.15 571C1234.82 571.333 1234.53 571.583 1234.28 571.75C1234.11 571.917 1233.86 571.958 1233.53 571.875ZM1433.14 631.875C1430.89 640.708 1429.89 646.5 1430.14 649.25C1430.47 651.917 1431.85 653.25 1434.26 653.25C1436.1 653.25 1438.14 652.5 1440.39 651C1442.64 649.5 1445.43 646.625 1448.76 642.375C1449.18 641.875 1449.47 641.542 1449.64 641.375C1449.89 641.208 1450.14 641.167 1450.39 641.25C1450.64 641.25 1450.72 641.458 1450.64 641.875C1450.64 642.208 1450.47 642.708 1450.14 643.375C1446.56 649.208 1442.26 653.792 1437.26 657.125C1432.26 660.458 1426.72 662.125 1420.64 662.125C1416.56 662.125 1413.56 661.167 1411.64 659.25C1409.72 657.333 1408.76 654.5 1408.76 650.75C1408.76 649.167 1408.97 647.083 1409.39 644.5C1409.81 641.917 1410.43 638.75 1411.26 635C1412.18 631.25 1413.31 626.917 1414.64 622C1415.97 617 1417.56 611.375 1419.39 605.125L1420.39 605.625C1416.06 616.958 1411.31 626.875 1406.14 635.375C1401.06 643.792 1395.47 650.375 1389.39 655.125C1383.39 659.792 1376.81 662.125 1369.64 662.125C1361.81 662.125 1355.89 659.083 1351.89 653C1347.97 646.833 1346.93 637.208 1348.76 624.125C1349.68 616.292 1351.81 608.708 1355.14 601.375C1358.47 593.958 1362.72 587.125 1367.89 580.875C1373.06 574.542 1378.93 569.042 1385.51 564.375C1392.18 559.625 1399.26 555.917 1406.76 553.25C1414.26 550.583 1422.01 549.25 1430.01 549.25C1435.18 549.25 1439.72 549.625 1443.64 550.375C1447.64 551.125 1450.76 552 1453.01 553C1455.35 554 1456.51 554.833 1456.51 555.5C1456.51 556.25 1456.18 556.792 1455.51 557.125C1454.85 557.458 1454.18 557.833 1453.51 558.25C1452.85 558.583 1452.43 559.167 1452.26 560L1433.14 631.875ZM1370.64 627.5C1369.06 637.25 1369.35 644.25 1371.51 648.5C1373.68 652.75 1376.6 654.875 1380.26 654.875C1383.26 654.875 1386.35 653.708 1389.51 651.375C1392.76 649.042 1396.06 645.5 1399.39 640.75C1402.72 636 1406.14 630 1409.64 622.75C1413.14 615.5 1416.64 607 1420.14 597.25C1423.64 587.5 1427.1 576.458 1430.51 564.125C1431.6 560.125 1431.93 557.042 1431.51 554.875C1431.18 552.708 1429.6 551.625 1426.76 551.625C1421.51 551.625 1416.39 553.042 1411.39 555.875C1406.39 558.708 1401.68 562.583 1397.26 567.5C1392.85 572.417 1388.81 578.125 1385.14 584.625C1381.56 591.042 1378.51 597.917 1376.01 605.25C1373.51 612.5 1371.72 619.917 1370.64 627.5ZM1492.28 660C1497.78 660 1502.36 658.333 1506.03 655C1509.78 651.667 1511.65 647.458 1511.65 642.375C1511.74 639.792 1511.24 637.25 1510.15 634.75C1509.07 632.167 1507.24 629.292 1504.65 626.125C1502.07 622.958 1498.53 619.125 1494.03 614.625C1489.03 609.708 1484.99 605.5 1481.9 602C1478.9 598.417 1476.74 595.042 1475.4 591.875C1474.15 588.708 1473.61 585.208 1473.78 581.375C1474.11 575.625 1476.07 570.292 1479.65 565.375C1483.32 560.375 1488.32 556.375 1494.65 553.375C1500.99 550.375 1508.24 548.875 1516.4 548.875C1523.32 548.875 1529.11 549.75 1533.78 551.5C1538.44 553.25 1541.94 555.542 1544.28 558.375C1546.69 561.125 1547.94 564.042 1548.03 567.125C1548.11 569.708 1547.49 571.792 1546.15 573.375C1544.82 574.875 1543.11 575.625 1541.03 575.625C1538.53 575.625 1536.44 574.75 1534.78 573C1533.11 571.25 1531.61 568.083 1530.28 563.5C1528.69 559.167 1526.57 556 1523.9 554C1521.24 551.917 1518.19 550.875 1514.78 550.875C1508.69 550.875 1503.65 552.75 1499.65 556.5C1495.74 560.25 1493.78 565.125 1493.78 571.125C1493.69 574.125 1494.15 577.042 1495.15 579.875C1496.15 582.708 1498.11 585.917 1501.03 589.5C1504.03 593 1508.4 597.5 1514.15 603C1518.9 607.333 1522.61 611.167 1525.28 614.5C1528.03 617.75 1529.9 620.875 1530.9 623.875C1531.99 626.875 1532.36 630.167 1532.03 633.75C1531.61 639.333 1529.57 644.25 1525.9 648.5C1522.24 652.75 1517.4 656.083 1511.4 658.5C1505.4 660.917 1498.49 662.125 1490.65 662.125C1483.65 662.125 1477.61 661.042 1472.53 658.875C1467.53 656.708 1463.69 653.917 1461.03 650.5C1458.36 647 1457.03 643.375 1457.03 639.625C1457.03 637.292 1457.57 635.375 1458.65 633.875C1459.74 632.292 1461.36 631.5 1463.53 631.5C1466.03 631.5 1468.11 632.458 1469.78 634.375C1471.44 636.292 1472.94 639.542 1474.28 644.125C1476.78 649.958 1479.49 654.083 1482.4 656.5C1485.32 658.833 1488.61 660 1492.28 660Z" fill="#FF4400"/>
</svg>
